<svg id="Layer_1" data-name="Layer 1" xmlns="http://www.w3.org/2000/svg" viewBox="0 0 198 158"><defs><style>.cls-1{fill:#1b75bc;}.cls-2{fill:#808285;}.cls-3{font-size:22.8px;fill:#414042;font-family:BowlbyOne-Regular, Bowlby One;}</style></defs><title>Logo</title><rect class="cls-1" x="52.33" y="14.75" width="37.17" height="9.58"/><path class="cls-2" d="M10.67,83H42v8.5s4.83,6.17,10.33,0V24.33H89.5V90.5S90.33,119.87,54,120c0,0-42.5,5.17-43.33-28.5Z"/><polygon class="cls-1" points="95.88 14.75 95.88 24.43 130 24.33 130 14.75 95.88 14.75"/><polygon class="cls-1" points="144.13 24.33 178.75 24.33 183.38 14.75 148 14.75 144.13 24.33"/><polygon class="cls-2" points="187.17 120.13 149.5 120.28 131.17 76.67 131.17 120.13 95.83 120.28 95.88 24.43 130 24.33 130 54.5 131.83 55.17 144.13 24.33 178.75 24.33 159.5 64.33 187.17 120.13"/><text class="cls-3" transform="translate(10.67 140.13) scale(1.37 1)">Izaguirre</text></svg>